<svg width="185" height="50" viewBox="0 0 185 50" fill="none" xmlns="http://www.w3.org/2000/svg">
<path d="M10 1.5H12.5315C7.82965 3.99467 3.97219 7.89962 1.5 12.6579V10C1.5 5.30558 5.30558 1.5 10 1.5ZM1.5 40V37.3421C3.97219 42.1004 7.82965 46.0053 12.5315 48.5H10C5.30558 48.5 1.5 44.6944 1.5 40ZM160.386 48.5H24.6137C11.8703 48.5 1.5 38.0008 1.5 25C1.5 11.9992 11.8703 1.5 24.6137 1.5H160.386C173.13 1.5 183.5 11.9992 183.5 25C183.5 38.0008 173.13 48.5 160.386 48.5ZM183.5 12.6579C181.028 7.89962 177.17 3.99467 172.468 1.5H175C179.694 1.5 183.5 5.30558 183.5 10V12.6579ZM172.468 48.5C177.17 46.0053 181.028 42.1004 183.5 37.3421V40C183.5 44.6944 179.694 48.5 175 48.5H172.468Z" stroke="white" stroke-width="3"/>
</svg>
